<?xml version="1.0" encoding="UTF-8"?>
<svg id="Capa_2" data-name="Capa 2" xmlns="http://www.w3.org/2000/svg" viewBox="0 0 316.01 82.69">
  <defs>
    <style>
      .cls-1 {
        fill: #002596;
      }

      .cls-2 {
        fill: #fff;
      }

      .cls-3 {
        fill: #ffd200;
      }

      .cls-4 {
        fill: #cc092f;
      }

      .cls-5 {
        fill: #deb500;
      }

      .cls-6 {
        fill: #8b2346;
      }
    </style>
  </defs>
  <g id="Capa_1-2" data-name="Capa 1">
    <g>
      <path class="cls-5" d="m53.39,1.29l.41.27c4.53,3,8.17,3.54,13.71,3.54,1.95,0,4.05-.37,6.06-1.06l.53-.18,2.63,3.68-.27.36c-9.77,12.98-2.15,26.99,3.24,32.58l.5.52-.51.51c-.71.71-1.93,1.98-2.84,2.93l-.31.32.02.45v.15c0,.11.01.23.04.44v.08c.46,8.66-1.78,15.77-6.66,21.13-5.19,5.7-13.37,9.13-23.03,9.66l-.37.02-.28.25c-2.46,2.24-4.96,4.1-4.99,4.12l-.44.32-.44-.32c-.1-.08-2.57-1.91-5-4.12l-.28-.25-.37-.02c-9.67-.53-17.85-3.96-23.03-9.66-4.88-5.37-7.12-12.48-6.67-21.13v-.08c.03-.19.03-.3.04-.42v-.03s0,0,0,0v-.13s.02-.45.02-.45l-.31-.32c-.86-.9-2.12-2.21-2.84-2.93l-.51-.51.5-.52c5.39-5.59,13.01-19.6,3.24-32.58l-.27-.36,2.63-3.68.53.18c2.01.69,4.11,1.06,6.06,1.06,5.54,0,9.19-.55,13.71-3.54l.41-.27.41.28c3.99,2.77,7.85,4.06,12.15,4.06s8.16-1.29,12.15-4.06l.41-.28"/>
      <path class="cls-2" d="m11.1,33.33c3.06-7.02,4.2-16.03-.95-24.84,1.29.23,2.64.37,4,.37,5.27,0,9.41-.48,14.07-3.11,3.67,2.22,7.79,3.63,12.6,3.64,4.84,0,8.95-1.42,12.62-3.64,4.66,2.63,8.8,3.11,14.07,3.11,1.37,0,2.72-.14,4.02-.39-5.16,8.83-4.02,17.84-.96,24.86H11.1"/>
      <path class="cls-3" d="m70.58,33.33c-3.06-7.02-4.2-16.03.96-24.86-1.3.25-2.65.39-4.02.39-5.27,0-9.41-.48-14.07-3.11-3.67,2.22-7.79,3.63-12.62,3.64-.05,0-.09,0-.14,0v23.94h29.89Z"/>
      <g>
        <path class="cls-1" d="m64.03,67.24c5.86-4.28,9.32-11.12,8.81-21.1-.06-.57-.1-.6-.15-1.17h-8.67v22.28Z"/>
        <path class="cls-6" d="m54.75,71.54c3.49-.94,6.63-2.36,9.28-4.3v-22.27h-9.28v26.57Z"/>
        <path class="cls-6" d="m17.65,67.24c2.65,1.94,5.79,3.35,9.28,4.3v-26.57h-9.28v22.27Z"/>
        <path class="cls-1" d="m8.84,46.14c-.51,9.98,2.95,16.82,8.81,21.11v-22.28h-8.67c-.05.57-.09.6-.15,1.17Z"/>
        <g>
          <path class="cls-6" d="m40.86,49.89c1.7,0,3.28.49,4.62,1.33v-6.25h-9.28v6.28c1.35-.85,2.95-1.36,4.66-1.36Z"/>
          <path class="cls-6" d="m40.86,67.37c-1.72,0-3.31-.5-4.66-1.36v6.92c.16,0,.33.02.49.03,3.08.02,5.88.03,8.3,0,.16,0,.33-.02.49-.03v-6.89c-1.34.84-2.92,1.33-4.62,1.33Z"/>
        </g>
        <path class="cls-1" d="m45.48,44.97v6.25c2.47,1.54,4.13,4.28,4.13,7.41s-1.65,5.87-4.13,7.41v6.89c3.28-.17,6.4-.62,9.28-1.4v-26.57h-9.28Z"/>
        <path class="cls-1" d="m32.12,58.63c0-3.11,1.63-5.84,4.08-7.39v-6.28h-9.28v26.57c2.88.78,6,1.23,9.28,1.4v-6.92c-2.45-1.55-4.08-4.27-4.08-7.39Z"/>
      </g>
      <path class="cls-4" d="m13.19,16.36c.62,3.04.64,6.02.24,8.85h9.01v8.12h8.85v-8.12h9.43v-8.85h-9.43V7.36c-1.06-.47-2.08-1.01-3.07-1.6-1.98,1.12-3.86,1.84-5.78,2.31v8.29h-9.26Z"/>
      <g>
        <path class="cls-4" d="m59.78,33.33V8.19c-1.07-.23-2.12-.54-3.18-.95v26.09h3.18Z"/>
        <path class="cls-4" d="m47.05,33.33V8.55c-1.02.28-2.08.5-3.18.64v24.14h3.18Z"/>
        <path class="cls-4" d="m66.14,33.33V8.85c-1.1-.02-2.16-.07-3.18-.17v24.65h3.18Z"/>
        <path class="cls-4" d="m53.41,33.33V5.78c-1.02.62-2.08,1.17-3.18,1.65v25.91h3.18Z"/>
      </g>
      <path d="m81.68,41l-1.21-1.26c-5.18-5.37-12.5-18.81-3.16-31.22l.73-.98-3.53-4.95-1.27.44c-1.9.66-3.88,1-5.72,1-5.33,0-8.83-.52-13.13-3.37l-1.01-.67-.99.69c-3.81,2.64-7.48,3.87-11.55,3.87s-7.74-1.23-11.55-3.87l-.99-.69-1.01.67c-4.3,2.85-7.8,3.37-13.13,3.37-1.84,0-3.82-.35-5.72-1l-1.27-.44-3.53,4.95.73.98c9.34,12.41,2.02,25.85-3.16,31.22l-1.21,1.26,1.24,1.24c.67.66,1.85,1.89,2.82,2.92,0,.06,0,.11,0,.16,0,.11,0,.2-.03.37v.12c-.49,8.95,1.85,16.33,6.93,21.91,5.38,5.92,13.8,9.46,23.75,10.01,2.47,2.25,4.97,4.11,5.08,4.19l1.06.79,1.06-.79c.11-.08,2.6-1.94,5.06-4.19,9.95-.55,18.37-4.09,23.75-10.01,5.08-5.58,7.41-12.96,6.94-21.91v-.12c-.03-.17-.03-.26-.04-.37,0-.05,0-.1,0-.16.98-1.03,2.16-2.25,2.82-2.92l1.24-1.24Zm-5.89,3.5c.09.9.04.86.1,1.39,1.06,19.96-12.84,29.38-29.64,30.07-2.57,2.4-5.4,4.51-5.4,4.51,0,0-2.84-2.11-5.41-4.51-16.8-.7-30.7-10.12-29.64-30.07.06-.53,0-.49.1-1.39-.96-1.02-2.56-2.68-3.4-3.52,6.03-6.25,13.06-20.56,3.3-33.53l2.06-2.73c1.95.67,4.12,1.1,6.3,1.1,5.6,0,9.42-.56,14.12-3.67,3.71,2.58,7.74,4.19,12.57,4.19s8.85-1.61,12.57-4.19c4.7,3.11,8.52,3.67,14.12,3.67,2.18,0,4.35-.43,6.3-1.1l2.06,2.73c-9.76,12.97-2.73,27.28,3.3,33.53-.84.84-2.44,2.5-3.4,3.52Z"/>
      <path d="m8.72,44.94c-.02.3-.05.45-.07.61-.02.14-.05.29-.07.57-.39,7.67,1.53,13.88,5.7,18.46,4.78,5.25,12.53,8.24,22.42,8.65h.38c1.65.01,3.21.02,4.67.02,1.15,0,2.23,0,3.26-.02,9.88-.41,17.63-3.4,22.41-8.65,4.17-4.58,6.09-10.79,5.7-18.47-.03-.26-.05-.41-.07-.55-.03-.16-.05-.31-.07-.61l-.02-.25H8.73l-.02.25Zm.39,1.22c.03-.25.05-.39.07-.52.02-.12.04-.24.05-.41h63.23c.02.17.04.28.05.41.02.13.04.28.07.51.38,7.53-1.49,13.61-5.56,18.07-4.69,5.14-12.31,8.07-22.03,8.47-2.32.03-4.98.02-7.91,0h-.37c-9.73-.41-17.36-3.34-22.04-8.47-4.07-4.47-5.94-10.55-5.56-18.06Z"/>
      <path d="m10.85,33.23l-.16.37h60.29l-.16-.37c-2.62-6.01-4.58-15.15.95-24.62l.3-.51-.58.11c-1.33.26-2.67.39-3.97.39-5.38,0-9.39-.5-13.94-3.08l-.14-.08-.13.08c-4,2.42-8.08,3.6-12.48,3.6-4.39,0-8.47-1.18-12.47-3.6l-.13-.08-.14.08c-4.55,2.57-8.56,3.08-13.94,3.08-1.26,0-2.59-.12-3.96-.36l-.57-.1.29.5c5.52,9.44,3.55,18.59.93,24.59Zm30.14-23.57c4.39-.03,8.47-1.21,12.46-3.59,4.6,2.56,8.65,3.07,14.07,3.07,1.15,0,2.32-.1,3.5-.29-5.18,9.28-3.39,18.21-.85,24.23h-29.18V9.66Zm-30.33-.81c1.2.19,2.38.28,3.49.28,5.42,0,9.47-.5,14.07-3.07,3.93,2.35,7.94,3.53,12.24,3.59v23.41H11.5c2.54-6.02,4.33-14.94-.84-24.21Z"/>
      <polygon points="33.23 36.8 33.23 35.04 27.26 35.04 27.26 43.31 29.06 43.31 29.06 39.9 31.49 39.9 31.49 38.15 29.06 38.15 29.06 36.8 33.23 36.8"/>
      <path d="m40.22,36.7c.65,0,1.11.27,1.4.83l.04.08,1.66-.77-.04-.08c-.58-1.21-1.63-1.84-3.04-1.84-2.17,0-3.68,1.75-3.68,4.26s1.42,4.26,3.62,4.26c1.44,0,2.47-.63,3.07-1.88l.04-.07-1.51-.89-.05.07c-.43.72-.84.99-1.51.99-1.1,0-1.83-1-1.83-2.48s.7-2.48,1.82-2.48Z"/>
      <path d="m54.08,37.27c0-1.39-.99-2.23-2.65-2.23h-3.8v8.27h3.76c1.86,0,2.97-1.01,2.97-2.7,0-.79-.38-1.43-1.04-1.78.49-.35.77-.92.77-1.56Zm-4.69-.56h1.97c.8,0,.91.37.91.69,0,.45-.27.68-.82.68h-2.05v-1.36Zm2.06,4.89h-2.06v-1.92h2.06c.73,0,1.07.3,1.07.95s-.37.96-1.07.96Z"/>
      <path d="m40.8,67.52c4.92,0,8.93-4.01,8.93-8.93s-4.01-8.93-8.93-8.93-8.93,4.01-8.93,8.93,4.01,8.93,8.93,8.93Zm0-.54c-1.73,0-3.35-.53-4.68-1.43,1.77-.08,4.13-.53,5.59-1.41,1.42-.84,2.92-1.9,3.2-3.31,1.03-.51,3-.27,3.25,1.8-1.43,2.59-4.19,4.34-7.35,4.34Zm-4.14-6.47c.41.27.91.46,1.5.53,1.17.15,2.79-1.01,2.89-2.32,1.6-1.14,2.84-.11,3.21.78.74,1.76-.81,3.03-2.81,4.22-1.54.92-4.23,1.36-5.98,1.35-.93-.76-1.69-1.72-2.22-2.81.07,0,.13,0,.2,0,1.38,0,2.55-.63,3.21-1.75Zm-1.34-4.24c-.02-1.64.44-3.09.81-4.66,1.14-.77,2.48-1.26,3.93-1.38-.97,1.06-.77,2.6.23,3.4-.23.17-.45.4-.63.69-.74,1.17-.84,3.14.87,4.4-.1.98-1.42,1.95-2.32,1.83-1.95-.25-2.86-2.06-2.9-4.27Zm9.62,4.01c-.01-.31-.09-.63-.23-.98-.45-1.07-1.99-2.36-3.92-1.03-1.42-1.07-1.33-2.71-.71-3.7.98-1.55,3.19-.93,5.22.2,1.64.92,3.37,2.84,3.85,4.58-.08.9-.31,1.76-.65,2.56-.57-1.78-2.42-2.04-3.56-1.64Zm.61-5.94c-1.47-.82-3.39-1.57-4.78-.99-1.05-.65-1.23-2.29.09-3.16,4.43.04,8.05,3.51,8.31,7.89-.79-1.51-2.24-2.96-3.62-3.73Zm-10.05-2.28c-.16.62-.31,1.16-.43,1.71-.43,1.98-.43,4.96,1.18,6.42-.55.99-1.57,1.56-2.81,1.56-.15,0-.29,0-.44-.03-.39-.97-.61-2.03-.61-3.15,0-2.63,1.21-4.98,3.1-6.52Z"/>
    </g>
    <g>
      <path d="m98.28,32.17c0-12.52,6.19-18.15,17.53-18.15,9.74,0,14.19,5.29,14.19,5.29v7.37h-7.72s-.56-4.24-6.4-4.24c-6.19,0-8.14,3.06-8.14,9.53v12.38c0,6.47,1.95,9.53,8.14,9.53,5.84,0,6.4-4.24,6.4-4.24h7.72v7.37s-4.45,5.29-14.19,5.29c-11.34,0-17.53-5.63-17.53-18.15v-11.96Z"/>
      <path d="m135.63,14.5h9.46v31.23c0,6.47,2.16,8.35,8,8.35,5.43,0,8.42-2.85,8.42-2.85V14.5h9.46v47.3h-7.37l-1.11-4.31h-.28s-4.94,4.8-12.17,4.8c-9.67,0-14.4-4.38-14.4-16.07V14.5Z"/>
      <path d="m179.32,14.5h9.46v38.74h19.13l-1.39,8.56h-27.2V14.5Z"/>
      <path d="m210.41,14.5h29.98l-1.39,8.55h-19.13v10.85h17.32v8.55h-17.32v10.78h19.82v8.56h-29.28V14.5Z"/>
      <path d="m246.66,14.5h17.88c10.29,0,15.93,4.87,15.93,14.05,0,10.78-9.74,14.19-9.74,14.19,0,0,4.66,8.35,9.53,13.35v5.7h-7.23c-5.91-6.47-11.96-18.08-11.96-18.08h-4.94v18.08h-9.46V14.5Zm19.96,20.66s4.38-1.11,4.38-6.19c0-3.76-2.3-5.91-6.12-5.91h-8.76v12.1h10.5Z"/>
      <path d="m284.36,51.3h7.37s1.39,2.85,7.23,2.85,7.72-2.09,7.72-5.29c0-2.43-1.39-4.45-5.49-5.91l-4.24-1.53c-8.83-3.2-12.1-6.89-12.1-13.98,0-8.56,6.05-13.35,16.69-13.35,7.86,0,13.42,2.99,13.42,2.99v8h-7.44s-.83-2.92-6.47-2.92c-4.8,0-6.89,2.23-6.89,5.08s1.53,3.83,5.77,5.36l4.24,1.53c9.95,3.62,11.83,7.79,11.83,14.05,0,8.9-5.01,14.05-17.32,14.05-8.14,0-14.33-2.92-14.33-2.92v-8Z"/>
    </g>
  </g>
</svg>